<svg viewBox="0 0 800 600" xmlns="http://www.w3.org/2000/svg">
  <defs>
    <linearGradient id="grad2" x1="0%" y1="0%" x2="100%" y2="100%">
      <stop offset="0%" stop-color="#6B4A30"/>
      <stop offset="100%" stop-color="#3B2818"/>
    </linearGradient>
  </defs>
  <rect width="800" height="600" fill="url(#grad2)"/>
  <g><path d="M 0,105.23811722799708 L 40.0,110.3 L 80.0,113.4 L 120.0,113.9 L 160.0,111.6 L 200.0,107.1 L 240.0,101.3 L 280.0,95.2 L 320.0,90.0 L 360.0,86.8 L 400.0,86.1 L 440.0,88.1 L 480.0,92.5 L 520.0,98.3 L 560.0,104.4 L 600.0,109.7 L 640.0,113.1 L 680.0,113.9 L 720.0,112.1 L 760.0,107.9 L 800.0,102.1 " fill="none" stroke="#241509" stroke-width="2" opacity="0.35"/><path d="M 0,177.98022652822556 L 40.0,182.2 L 80.0,188.0 L 120.0,194.1 L 160.0,199.5 L 200.0,203.0 L 240.0,204.0 L 280.0,202.2 L 320.0,198.1 L 360.0,192.4 L 400.0,186.3 L 440.0,180.8 L 480.0,177.2 L 520.0,176.0 L 560.0,177.6 L 600.0,181.5 L 640.0,187.2 L 680.0,193.3 L 720.0,198.9 L 760.0,202.7 L 800.0,204.0 " fill="none" stroke="#241509" stroke-width="2" opacity="0.35"/><path d="M 0,271.05374780131984 L 40.0,267.3 L 80.0,266.0 L 120.0,267.4 L 160.0,271.3 L 200.0,276.9 L 240.0,283.0 L 280.0,288.6 L 320.0,292.5 L 360.0,294.0 L 400.0,292.8 L 440.0,289.0 L 480.0,283.6 L 520.0,277.4 L 560.0,271.7 L 600.0,267.7 L 640.0,266.0 L 680.0,267.1 L 720.0,270.6 L 760.0,276.0 L 800.0,282.2 " fill="none" stroke="#241509" stroke-width="2" opacity="0.35"/><path d="M 0,379.2598287263616 L 40.0,373.8 L 80.0,367.7 L 120.0,362.0 L 160.0,357.8 L 200.0,356.0 L 240.0,357.0 L 280.0,360.4 L 320.0,365.7 L 360.0,371.9 L 400.0,377.7 L 440.0,382.0 L 480.0,383.9 L 520.0,383.2 L 560.0,379.9 L 600.0,374.7 L 640.0,368.5 L 680.0,362.7 L 720.0,358.3 L 760.0,356.1 L 800.0,356.7 " fill="none" stroke="#241509" stroke-width="2" opacity="0.35"/><path d="M 0,471.80293621218414 L 40.0,473.9 L 80.0,473.3 L 120.0,470.1 L 160.0,464.9 L 200.0,458.8 L 240.0,452.9 L 280.0,448.4 L 320.0,446.2 L 360.0,446.6 L 400.0,449.6 L 440.0,454.7 L 480.0,460.7 L 520.0,466.7 L 560.0,471.3 L 600.0,473.8 L 640.0,473.5 L 680.0,470.7 L 720.0,465.7 L 760.0,459.7 L 800.0,453.7 " fill="none" stroke="#241509" stroke-width="2" opacity="0.35"/><path d="M 0,544.3814113209584 L 40.0,550.4 L 80.0,556.4 L 120.0,561.1 L 160.0,563.7 L 200.0,563.6 L 240.0,560.9 L 280.0,556.0 L 320.0,550.0 L 360.0,544.0 L 400.0,539.1 L 440.0,536.4 L 480.0,536.3 L 520.0,538.9 L 560.0,543.6 L 600.0,549.6 L 640.0,555.6 L 680.0,560.6 L 720.0,563.5 L 760.0,563.8 L 800.0,561.4 " fill="none" stroke="#241509" stroke-width="2" opacity="0.35"/></g>
  <rect x="0" y="536" width="280" height="64" fill="#1E140D" opacity="0.55"/>
  <text x="24" y="574" font-family="monospace" font-size="20" fill="#F4ECDC" letter-spacing="2">
    WALNUT
  </text>
</svg>